<svg id="Layer_1" data-name="Layer 1" xmlns="http://www.w3.org/2000/svg" viewBox="0 0 30 50"><defs><style>.cls-1{fill:#fff;}</style></defs><title>30x50</title><path class="cls-1" d="M18.4,37.6c-0.4,0-.5.1-0.5,0.3H17.8l-0.5.3h0a25.5,25.5,0,0,0,4.9,1.5c1.7,0.4,2,.1,2.1,0h0l-0.7-.3-2.1-.7a19.1,19.1,0,0,1-3-1.2h0Z"/><circle class="cls-1" cx="16.8" cy="37.5" r="0.2"/><path class="cls-1" d="M23.9,35.6c-0.4-.5-1.6-0.2-2.3-0.1H21.5l-4.2,1.1-1.4.3H15.9a2.7,2.7,0,0,1-2.2,1.8h0a0.5,0.5,0,0,1-.6-0.1l-0.3-.2a2.1,2.1,0,0,0-1.6,0,2.3,2.3,0,0,0-1,1l-0.2.3a2.6,2.6,0,0,0-.6,1.5v0a1.3,1.3,0,0,1,.8-0.8l0.4,0.5a1.7,1.7,0,0,0,1.5.2,1.9,1.9,0,0,0,1.4-1.6c0-.1,0-0.2.5-0.5l3.1-1.1c0.4-.1.5-0.2,0.5-0.4a0.2,0.2,0,0,1,.2-0.1l6.2-2H23.9ZM12.7,40.4a1.6,1.6,0,0,1-1.6.4,0.9,0.9,0,0,1-.6-0.7,1.2,1.2,0,0,1,.7-1.2,1.4,1.4,0,0,1,1.5.1A0.9,0.9,0,0,1,12.7,40.4Zm4-2.6a0.3,0.3,0,1,1,.3-0.3A0.3,0.3,0,0,1,16.7,37.8Z"/><path class="cls-1" d="M16.1,36.6l-1.2-.4-0.9-.3a0.5,0.5,0,0,1-.5-0.6V35.1a1.7,1.7,0,0,0-.6-0.9,2,2,0,0,0-2.4-.2,1.3,1.3,0,0,0-.4,1.3,1.7,1.7,0,0,0,1.1,1.3,1.9,1.9,0,0,0,1.7-.2l0.2-.2a1,1,0,0,1,.9.1,4.6,4.6,0,0,1,1.4.9h0a0.6,0.6,0,0,0,.3-0.4h0.3Zm-4-.2a1.5,1.5,0,0,1-1.3-.5,1,1,0,0,1,.8-1.7,1.4,1.4,0,0,1,1.4.9A1,1,0,0,1,12.1,36.4Z"/><circle class="cls-1" cx="15.8" cy="19" r="0.2" transform="matrix(0.07, -1, 1, 0.07, -4.2, 33.49)"/><path class="cls-1" d="M14.2,16.5L15.4,18l-0.4.6-1.5-1.9a55.5,55.5,0,0,1-3.5-5.3,3.1,3.1,0,0,1-.4-1.3,1.5,1.5,0,0,1,.6-1.3l0.6-.4,3.8,6.6C13.6,15.9,14.2,16.5,14.2,16.5Z"/><path class="cls-1" d="M17.6,21.5s-0.1.1-.4-0.3L16.1,20l0.6-.5S17.9,20.8,17.6,21.5Z"/><path class="cls-1" d="M22.5,8.2S22,8,21.3,9.5s-2.2,4.1-2.5,4.6l-3,3.9c-0.7.8-1.5,1.9-1,2.2s0.2,0.2,1-.4a32.3,32.3,0,0,0,3-2.9,36.2,36.2,0,0,0,4.3-6C23.5,9.7,23.4,8.4,22.5,8.2ZM16.2,19a0.4,0.4,0,1,1-.4-0.4A0.4,0.4,0,0,1,16.2,19Zm6.7-9.5a0.4,0.4,0,1,1-.4-0.4A0.4,0.4,0,0,1,22.8,9.5Z"/><polygon class="cls-1" points="3.4 38.7 16.2 25.9 3.2 13 3.6 12.6 16.6 25.5 29.4 12.7 29.8 13.1 16.9 25.9 29.6 38.6 29.2 38.9 16.6 26.3 3.8 39.1 3.4 38.7"/><path class="cls-1" d="M2.5,28.9a2,2,0,0,1-1.6-.8A3.2,3.2,0,0,1,.3,26a2.9,2.9,0,0,1,.7-2,2,2,0,0,1,1.6-.7H3v0.8H2.6a1.3,1.3,0,0,0-1.1.6,2.6,2.6,0,0,0,0,2.8,1.4,1.4,0,0,0,1.1.6H3v0.8H2.5Z"/><path class="cls-1" d="M6,28.9a1.5,1.5,0,0,1-1.3-.4,2.7,2.7,0,0,1-.4-1.6V23.5H5.2v3.8a0.9,0.9,0,0,0,.2.6,0.9,0.9,0,0,0,1.3,0,1,1,0,0,0,.2-0.7V23.5H7.7V27a2.9,2.9,0,0,1-.2,1.1,1.1,1.1,0,0,1-.5.6Z"/><polygon class="cls-1" points="9.9 28.7 9.9 24.2 9 24.2 9 23.5 11.6 23.5 11.6 24.2 10.7 24.2 10.7 28.7 9.9 28.7"/><rect class="cls-1" x="22.5" y="23.3" width="0.7" height="5.24"/><polygon class="cls-1" points="25.6 28.5 25.6 24 24.6 24 24.6 23.3 27.2 23.3 27.2 24 26.3 24 26.3 28.5 25.6 28.5"/></svg>