<svg id="Layer_1" data-name="Layer 1" xmlns="http://www.w3.org/2000/svg" viewBox="0 0 45 50"><defs><style>.cls-1{fill:#fff;}</style></defs><title>45x50</title><path class="cls-1" d="M27.1,42c-0.6,0-.7.2-0.7,0.4v0.2l-0.6.4h0a34.4,34.4,0,0,0,6.6,2c2.3,0.5,2.7.1,2.8,0.1h0l-1-.4-2.8-1A25.7,25.7,0,0,1,27.2,42h0Z"/><circle class="cls-1" cx="24.9" cy="41.9" r="0.2"/><path class="cls-1" d="M34.5,39.2c-0.5-.7-2.1-0.3-3-0.1H31.2l-5.7,1.5-1.8.4H23.7a3.7,3.7,0,0,1-3,2.4h0a0.7,0.7,0,0,1-.8-0.1l-0.3-.2a2.9,2.9,0,0,0-2.2,0,3,3,0,0,0-1.4,1.4l-0.3.4a3.5,3.5,0,0,0-.9,2v0.5l0.2-.5a1.8,1.8,0,0,1,1.1-1,1.7,1.7,0,0,0,.5.6,2.3,2.3,0,0,0,2,.3,2.5,2.5,0,0,0,1.9-2.2c0-.1-0.1-0.3.7-0.6l4.2-1.5c0.6-.2.7-0.3,0.7-0.6a0.3,0.3,0,0,1,.2-0.2l8.3-2.6H34.5ZM19.4,45.8a2.1,2.1,0,0,1-2.2.6,1.2,1.2,0,0,1-.8-1,1.6,1.6,0,0,1,1-1.6,1.9,1.9,0,0,1,2,.2A1.3,1.3,0,0,1,19.4,45.8Zm5.4-3.5a0.4,0.4,0,1,1,.4-0.4A0.4,0.4,0,0,1,24.9,42.3Z"/><path class="cls-1" d="M23.9,40.6l-1.6-.6L21,39.6a0.7,0.7,0,0,1-.6-0.8V38.6a2.2,2.2,0,0,0-.8-1.2,2.6,2.6,0,0,0-3.2-.2,1.8,1.8,0,0,0-.6,1.7,2.2,2.2,0,0,0,1.5,1.8,2.5,2.5,0,0,0,2.3-.2l0.2-.3a1.4,1.4,0,0,1,1.2.1,6.2,6.2,0,0,1,1.9,1.2h0.1a0.7,0.7,0,0,0,.4-0.6h0.4Zm-5.3-.3a2.1,2.1,0,0,1-1.8-.7,1.3,1.3,0,0,1,1.1-2.2,1.9,1.9,0,0,1,1.8,1.2A1.3,1.3,0,0,1,18.6,40.3Z"/><circle class="cls-1" cx="23.5" cy="16.9" r="0.3" transform="translate(5.1 39.3) rotate(-86.3)"/><path class="cls-1" d="M21.5,13.6l1.6,2-0.6.8-2-2.5a74.8,74.8,0,0,1-4.8-7.2,4.2,4.2,0,0,1-.5-1.8A2,2,0,0,1,16,3.2l0.7-.5,5.1,9C20.7,12.8,21.5,13.6,21.5,13.6Z"/><path class="cls-1" d="M26,20.2s-0.1.1-.5-0.4L24,18.2l0.8-.6S26.4,19.4,26,20.2Z"/><path class="cls-1" d="M32.6,2.4S31.9,2.1,30.9,4s-3,5.6-3.4,6.3-3.1,4.1-4,5.3-2,2.6-1.3,3,0.3,0.2,1.3-.5a43.6,43.6,0,0,0,4-3.9c1.6-1.9,5.1-6.4,5.7-8S33.8,2.6,32.6,2.4ZM24.1,16.9a0.5,0.5,0,1,1-.5-0.6A0.5,0.5,0,0,1,24.1,16.9Zm9-12.8a0.5,0.5,0,1,1-.5-0.6A0.5,0.5,0,0,1,33.1,4.2Z"/><polygon class="cls-1" points="6.8 43.5 24.1 26.2 6.6 8.8 7.1 8.2 24.6 25.7 41.9 8.4 42.4 9 25.1 26.2 42.2 43.3 41.7 43.8 24.6 26.7 7.4 44 6.8 43.5"/><path class="cls-1" d="M5.7,30.2a2.7,2.7,0,0,1-2.2-1,4.3,4.3,0,0,1-.9-2.8,4,4,0,0,1,.9-2.6,2.7,2.7,0,0,1,2.2-1H6.3v1.1H5.7a1.7,1.7,0,0,0-1.5.8,3.5,3.5,0,0,0,0,3.7,1.8,1.8,0,0,0,1.5.8H6.3v1.1H5.7Z"/><path class="cls-1" d="M10.4,30.2a2.1,2.1,0,0,1-1.7-.6,3.7,3.7,0,0,1-.5-2.2V22.9H9.3v5.1a1.3,1.3,0,0,0,.3.9,1.2,1.2,0,0,0,1.7,0,1.4,1.4,0,0,0,.3-0.9V22.9h1v4.8a3.9,3.9,0,0,1-.2,1.5,1.5,1.5,0,0,1-.6.7A2.8,2.8,0,0,1,10.4,30.2Z"/><polygon class="cls-1" points="15.6 30 15.6 23.9 14.4 23.9 14.4 22.9 17.9 22.9 17.9 23.9 16.6 23.9 16.6 30 15.6 30"/><rect class="cls-1" x="32.6" y="22.7" width="1" height="7.07"/><polygon class="cls-1" points="36.7 29.7 36.7 23.7 35.5 23.7 35.5 22.7 39 22.7 39 23.7 37.8 23.7 37.8 29.7 36.7 29.7"/></svg>