<svg id="Layer_1" data-name="Layer 1" xmlns="http://www.w3.org/2000/svg" viewBox="0 0 50 50"><defs><style>.cls-1{fill:#fff;}</style></defs><title>Cutit_Logo</title><path class="cls-1" d="M30,43.3c-0.6,0-.7.2-0.8,0.4v0.2l-0.7.4h0a37.1,37.1,0,0,0,7.1,2.2c2.5,0.5,2.9.1,3,.1h0l-1-.5-3-1A27.7,27.7,0,0,1,30,43.3h0Z"/><circle class="cls-1" cx="27.5" cy="43.2" r="0.2"/><path class="cls-1" d="M38,40.3c-0.5-.7-2.3-0.3-3.3-0.1H34.4L28.3,42l-2,.4H26.2A4,4,0,0,1,23,45.1h0a0.8,0.8,0,0,1-.8-0.2l-0.4-.3a3.1,3.1,0,0,0-2.4,0,3.3,3.3,0,0,0-1.5,1.5l-0.3.4a3.8,3.8,0,0,0-.9,2.2v0.6l0.2-.5A1.9,1.9,0,0,1,18,47.7a1.8,1.8,0,0,0,.6.7,2.4,2.4,0,0,0,2.2.3,2.7,2.7,0,0,0,2.1-2.4c0-.1-0.1-0.3.7-0.7l4.5-1.6c0.6-.2.8-0.3,0.8-0.6a0.3,0.3,0,0,1,.3-0.2l9-2.9H38ZM21.7,47.5a2.3,2.3,0,0,1-2.4.6,1.3,1.3,0,0,1-.8-1.1,1.8,1.8,0,0,1,1.1-1.8,2,2,0,0,1,2.1.2A1.4,1.4,0,0,1,21.7,47.5Zm5.8-3.8a0.4,0.4,0,1,1,.4-0.4A0.4,0.4,0,0,1,27.5,43.6Z"/><path class="cls-1" d="M26.5,41.9l-1.8-.6-1.3-.5a0.8,0.8,0,0,1-.7-0.8V39.7a2.4,2.4,0,0,0-.8-1.3,2.8,2.8,0,0,0-3.5-.3,1.9,1.9,0,0,0-.7,1.9A2.4,2.4,0,0,0,19.4,42a2.7,2.7,0,0,0,2.5-.2l0.3-.3a1.5,1.5,0,0,1,1.3.1,6.7,6.7,0,0,1,2.1,1.2h0.1a0.8,0.8,0,0,0,.4-0.6h0.5Zm-5.8-.3a2.2,2.2,0,0,1-1.9-.8A1.4,1.4,0,0,1,20,38.3a2.1,2.1,0,0,1,2,1.3A1.4,1.4,0,0,1,20.8,41.5Z"/><circle class="cls-1" cx="26.1" cy="16.3" r="0.3" transform="translate(8.2 41.3) rotate(-86.3)"/><path class="cls-1" d="M23.9,12.7l1.7,2.1-0.6.9L22.8,13a80.7,80.7,0,0,1-5.1-7.8A4.6,4.6,0,0,1,17,3.3a2.1,2.1,0,0,1,.9-1.8l0.8-.6,5.5,9.7C23,11.8,23.9,12.7,23.9,12.7Z"/><path class="cls-1" d="M28.8,19.9s-0.2.1-.6-0.4l-1.6-1.8,0.9-.7S29.2,18.9,28.8,19.9Z"/><path class="cls-1" d="M35.9,0.6s-0.7-.4-1.8,1.8-3.2,6-3.7,6.7-3.3,4.5-4.3,5.7-2.2,2.8-1.4,3.2,0.3,0.3,1.4-.6a47,47,0,0,0,4.3-4.2c1.7-2,5.5-6.9,6.2-8.7S37.2,0.9,35.9.6ZM26.7,16.3a0.6,0.6,0,1,1-.5-0.6A0.6,0.6,0,0,1,26.7,16.3ZM36.4,2.5a0.6,0.6,0,1,1-.5-0.6A0.6,0.6,0,0,1,36.4,2.5Z"/><polygon class="cls-1" points="8.1 44.9 26.7 26.3 7.9 7.5 8.4 6.9 27.3 25.8 45.9 7.1 46.4 7.7 27.8 26.3 46.2 44.7 45.7 45.3 27.3 26.9 8.7 45.5 8.1 44.9"/><path class="cls-1" d="M6.9,30.6a2.9,2.9,0,0,1-2.4-1.1,4.6,4.6,0,0,1-.9-3,4.3,4.3,0,0,1,.9-2.9,2.9,2.9,0,0,1,2.3-1.1H7.6v1.2H6.9a1.9,1.9,0,0,0-1.6.9,3.3,3.3,0,0,0-.6,2,3.3,3.3,0,0,0,.6,2.1,2,2,0,0,0,1.7.8H7.6v1.1H6.9Z"/><path class="cls-1" d="M11.9,30.6a2.3,2.3,0,0,1-1.8-.6,4,4,0,0,1-.5-2.4V22.8h1.1v5.5a1.4,1.4,0,0,0,.3.9,1.3,1.3,0,0,0,1.8,0,1.5,1.5,0,0,0,.3-1V22.8h1.1v5.1a4.2,4.2,0,0,1-.3,1.7,1.6,1.6,0,0,1-.7.8A3,3,0,0,1,11.9,30.6Z"/><polygon class="cls-1" points="17.6 30.4 17.6 23.9 16.3 23.9 16.3 22.8 20 22.8 20 23.9 18.7 23.9 18.7 30.4 17.6 30.4"/><rect class="cls-1" x="35.9" y="22.5" width="1.1" height="7.62"/><polygon class="cls-1" points="40.3 30.1 40.3 23.6 39 23.6 39 22.5 42.8 22.5 42.8 23.6 41.5 23.6 41.5 30.1 40.3 30.1"/></svg>